<?xml version="1.0" encoding="UTF-8"?>
<svg id="Capa_1" data-name="Capa 1" xmlns="http://www.w3.org/2000/svg" viewBox="0 0 2851.82 1144.46">
  <defs>
    <style>
      .cls-1 {
        fill: #017dbe;
      }
    </style>
  </defs>
  <path class="cls-1" d="M2588.7,1.26c-31.9,5-58.7,22.4-78,50.6-3.5,5-6.7,8.8-7.4,8.5-8.4-3.8-19.6-7.8-25.8-9-32.2-6.6-68.3,7.1-87.7,33.2-12.8,17.3-20.4,39.7-20.1,59.2.2,10.3.2,10-2.1,10-4.7,0-14.9,3.4-24.7,8.1-17.4,8.4-28.8,21.7-34.9,40.7-3.4,10.3-4.3,31.3-1.9,41.4,5.1,21.6,20.6,40.8,41.4,51.3,12.3,6.1,17.2,6.8,48.4,6.9,15.2.1,27.9-.2,28.3-.6.4-.3-.5-2.6-1.9-5-11.6-19.9-14.6-51.7-7-74.8,8.5-25.7,32-45.9,63.8-54.7,5.4-1.5,10-3.2,10.1-3.8,9-33,22-54.2,42.9-69.7,9.7-7.3,25.1-14.9,36.9-18.2,32-9.2,70.5-3.2,94.3,14.8,6,4.5,16.3,14.8,20,20l2.1,2.9,6.4-2.6c7.3-2.9,16.7-4.7,25.1-4.7,3.1,0,5.9-.4,6.2-.8.7-1.2-2.1-13.6-5.4-23.3-8.4-25-23.9-45.7-44.9-59.7-26.7-17.9-56-25.1-84.1-20.7Z"/>
  <path class="cls-1" d="M2581,90.16c-15,2.9-27.5,8.1-38,16-17.5,13.2-29.9,33.6-35.8,58.7-1.5,6.3-3,12.1-3.4,12.9-.5.9-3.7,1.8-8.7,2.6-32.8,4.7-55.7,22.6-63,49.5-2.3,8.4-2.3,28.6-.1,38.5,2.2,9.8,5.8,19.4,9.8,26,5.2,8.6,16.2,18.5,26,23.3,16.9,8.3.9,7.6,179.9,7.9,118.5.2,160.9,0,165-.8,3-.7,8.2-2.6,11.5-4.4,30.2-15.9,37.3-67.5,13-95.3-7.4-8.4-21.3-16.4-31.9-18.2l-4.1-.7-.7-10.1c-.9-13.2-3-21.9-8.1-32.3-3.3-6.8-5.9-10.2-12.7-17.1-24.4-24.7-58.7-31.1-92.2-17.4l-6.3,2.6-3.5-4.3c-15.5-19.1-29.1-28.8-49-35.3-7.6-2.5-10.2-2.8-24.5-3.1-10.6-.2-18.4.1-23.2,1Z"/>
  <path class="cls-1" d="M343.2,387.46c-92.3,4.2-164.1,27.2-221.7,70.9-13.1,10-40.1,36.9-49.9,49.9-15.7,20.7-27.7,40.9-37.8,63.6C11.6,622.26-.3,684.76,3.6,730.76c6.8,79.5,50.2,130.6,132.2,155.4,65.6,19.8,169.2,20.5,246,1.5,106.1-26.1,179.7-89,217.5-185.6,2.6-6.8,4.9-12.1,5-12,.3.3-39.4,188.1-41.2,195.3l-.6,2.4h132l1.2-5.3c.6-2.8,9-42.3,18.6-87.7s17.7-83.3,18-84.3c.5-1.7,4.8-1.8,91.2-1.5,82.9.3,91.2.5,96.7,2.1,18.6,5.4,28,14.9,32.1,32.4,1.3,5.4,1.5,10.1,1.1,22.3-.5,13.2-1.2,18.7-5.2,37.5-9.9,47.7-11.2,64.3-6.3,80.7l1.1,3.8,109.9-.2,110-.3,30.1-49.7,30.2-49.8,112.5.3,112.5.2,9,49.7,9,49.8h647.4l90.3-84.1c49.7-46.3,122-113.7,160.7-149.8,38.8-36.1,88-82,109.4-102l38.9-36.3,21.9,21.8,21.9,21.9v-162.5h-162.5l18.3,18.3c10,10,18.2,18.5,18.2,18.9,0,.5-134.4,126.2-295.5,276.1l-63,58.7h-382.2l3.3-15.8c1.8-8.6,5-23.7,7-33.4l3.7-17.8,115.1-.2,115-.3,12.2-57.5c6.8-31.6,12.3-58.3,12.4-59.3,0-1.6-6.1-1.7-114.5-1.7-63,0-114.5-.4-114.5-.8,0-1.1,12.9-62.1,13.6-64.5.5-1.6,9.2-1.7,164.8-1.7h164.2l56.5,52.6c31,28.9,58,54.2,60,56.1l3.6,3.4,41.9-39.1c23-21.5,41.9-39.5,41.9-39.9s-36.4-34.7-81-76.4l-81-75.6-269.5-.1h-269.5l-18.4,86.8c-15.7,74.1-19.9,92.8-20.1,89,0-.9-38-167.9-38.6-170.1-.5-1.6-5.2-1.7-80.2-1.7h-79.7l-126.3,193.8c-69.5,106.5-126.7,194.4-127.2,195.2-1.9,3.1-1.7,0,.6-11.5,8.9-43.7,8-76.8-2.7-99.2-5.9-12.3-18-22.3-31-25.6-2.9-.8-5.4-1.8-5.6-2.3s3.2-2.2,7.4-3.8c4.3-1.6,12.1-5,17.3-7.6,41.7-20.9,67.4-55,78.4-104.1,8.2-36.9,4.7-65.5-11.1-89.6-9.5-14.5-24.4-26-43.8-33.6-10.5-4.1-17.8-6.1-33-9-10.8-2-13.7-2.1-203-2.4l-192-.4-21.2,99.3-21.2,99.3v-20.7c-.1-23.4-1.7-38-6-55-5.5-22-16.1-44-28.9-60-27.9-35.1-75.4-59.7-134.7-69.7-33.5-5.7-74.8-8.1-111-6.4ZM386.1,482.66c40.3,8.4,67.6,28.3,82.7,60.5,22.7,48.6,12.2,123.2-25.2,179.1-32.9,49-79,77.7-137.1,85.1-18.2,2.3-49.7,1.6-65-1.5-34.6-7-59.6-22.4-75.3-46.5-13.7-21.1-19.7-43.5-19.7-74.1.1-47.6,18-97.1,49-135.6,8.5-10.6,26.1-27.1,37.3-35.2,18.2-13,47.1-25.7,68.9-30.3,17.6-3.6,26.1-4.3,50.5-3.9,19.3.3,26,.7,33.9,2.4ZM971.2,495.56c11.5,3.2,18.2,6.8,24.6,13.1,7.2,7.2,10,14.2,10.7,26.5.5,10-.9,19.5-4.4,30-8.3,24.3-26.7,41.1-53.4,48.9-7.4,2.1-8.5,2.1-101.7,2.5-77.9.2-94.3.1-94.3-1,0-1.4,24.7-118,25.6-121.1.5-1.7,4.7-1.8,92.7-1.5,91.8.4,92.2.4,100.2,2.6ZM1413.8,602.56l17.5,95.7-38.3.3c-21.1.1-55.5.1-76.6,0l-38.3-.3,58.5-96.2c32.2-52.9,58.8-96,59.1-95.7s8.4,43.6,18.1,96.2Z"/>
  <path class="cls-1" d="M2351.7,694.86c-22.8,21.4-41.6,39.3-41.8,39.7-.1.5,36.5,35.1,81.4,77l81.7,76.2h83.4c45.8,0,83.3-.2,83.3-.4,0-.3-53.4-50.5-118.7-111.7-65.4-61.2-120.8-113.1-123.3-115.5l-4.5-4.3-41.5,39Z"/>
  <path class="cls-1" d="M83.5,958.86c-44.6,6.1-77.6,44.9-82.9,97.2-4.3,43.7,14.8,76.2,50.8,85.9,11.1,2.9,32.5,2.9,43.8-.1,27.7-7.3,48.2-28.6,56.3-58.4l1-3.7h-16.5l-1.3,4.2c-5.1,17.3-19,33.9-34.3,41.1-6.1,3-18.6,5.7-25.4,5.7-6.7-.1-18.8-2.4-25.3-4.9-11.1-4.3-22.4-15.2-27.5-26.6-9.7-21.8-6.3-60.6,7.6-86.3,12.7-23.6,31.3-36.9,56.5-40.3,19.1-2.5,36.6,2.1,46.9,12.5,7.3,7.3,12.5,19.2,12.5,28.8v3.8h8.5c4.7,0,8.5-.2,8.5-.4,0-.3-.5-3.9-1.1-8.2-1.9-14-7.5-25.3-17.1-34.5-5.8-5.6-18.3-12-27.8-14.3-8.3-2-24.5-2.8-33.2-1.5Z"/>
  <path class="cls-1" d="M420.2,958.76c-10.2,1.4-25.2,6.5-34,11.7-4.3,2.5-11.6,8.1-16.2,12.6-19,18.2-30.4,43.2-33.4,73-4.3,43.7,14.9,76.2,50.8,85.8,10.1,2.7,31.2,3,42,.6,36.5-8.3,63.1-36,72.9-76.2,6.7-27.7,5.2-51.9-4.7-72.1-4.9-10-17.8-22.9-27.9-27.8-13.9-6.7-33.2-9.7-49.5-7.6ZM450.7,974.36c18.1,5.3,31,19.1,36.5,38.9,2.2,8.2,3.1,29.2,1.5,39.6-4.1,28.4-20.5,55.1-41.4,67.8-17.6,10.6-41.2,12.8-60.2,5.6-16.8-6.3-28.6-20.5-32.8-39.2-2-9.2-2.1-27.3-.1-38.9,7.3-42.3,31.6-69.9,66-75.4,8-1.2,23.8-.4,30.5,1.6Z"/>
  <path class="cls-1" d="M1071.5,958.86c-44.6,6.1-77.6,44.9-82.9,97.2-4.3,43.7,14.8,76.2,50.8,85.9,11.1,2.9,32.5,2.9,43.8-.1,27.7-7.3,48.2-28.6,56.3-58.4l1-3.7h-16.5l-1.3,4.2c-5.1,17.3-19,33.9-34.3,41.1-6.1,3-18.6,5.7-25.4,5.7-6.7-.1-18.8-2.4-25.3-4.9-11.1-4.3-22.4-15.2-27.5-26.6-9.7-21.8-6.3-60.6,7.6-86.3,12.7-23.6,31.3-36.9,56.5-40.3,19.1-2.5,36.6,2.1,46.9,12.5,7.3,7.3,12.5,19.2,12.5,28.8v3.8h8.5c4.7,0,8.5-.2,8.5-.4,0-.3-.5-3.9-1.1-8.2-1.9-14-7.5-25.3-17.1-34.5-5.8-5.6-18.3-12-27.8-14.3-8.3-2-24.5-2.8-33.2-1.5Z"/>
  <path class="cls-1" d="M1260.2,958.76c-10.2,1.4-25.2,6.5-34,11.7-4.3,2.5-11.6,8.1-16.2,12.6-19,18.2-30.4,43.2-33.4,73-4.3,43.7,14.9,76.2,50.8,85.8,10.1,2.7,31.2,3,42,.6,36.5-8.3,63.1-36,72.9-76.2,6.7-27.7,5.2-51.9-4.7-72.1-4.9-10-17.8-22.9-27.9-27.8-13.9-6.7-33.2-9.7-49.5-7.6ZM1290.7,974.36c18.1,5.3,31,19.1,36.5,38.9,2.2,8.2,3.1,29.2,1.5,39.6-4.1,28.4-20.5,55.1-41.4,67.8-17.6,10.6-41.2,12.8-60.2,5.6-16.8-6.3-28.6-20.5-32.8-39.2-2-9.2-2.1-27.3-.1-38.9,7.3-42.3,31.6-69.9,66-75.4,8-1.2,23.8-.4,30.5,1.6Z"/>
  <path class="cls-1" d="M1629.4,958.86c-3.8.5-10.3,2.1-14.5,3.5-19.5,6.5-31.1,18.7-34.9,36.8-3,14.1.3,26.8,9.4,36.6,7.2,7.8,14.7,11.4,37.8,18.4,29.6,9,37.2,12.5,43.2,20.4,3.9,5.2,5.3,9.8,5.3,17.9,0,16.9-12.2,30.2-33,35.9-8.8,2.4-28.9,2.4-37.9,0-20.6-5.5-31-18.7-31.1-39.4v-6.2h-17.3l.6,8.3c2.4,30.7,21.3,48.7,55.2,52.7,11.7,1.4,23.5.7,35.4-2.1,27.2-6.3,44.6-26.8,44.5-52.4-.1-12.2-2.7-19-10.4-26.6-8.3-8.3-18.1-12.8-47-21.4-22.4-6.6-33-12.9-37.1-22-2.6-5.6-2.5-16.8.2-23.9,6.3-16.8,29-26.2,55.3-22.7,13.1,1.8,19.1,4.3,25.6,11,6.4,6.6,8.9,12.3,9.7,22.8l.6,7.3h17l-.6-7.8c-2.2-27.8-18.6-43.2-50.2-47.1-10.2-1.2-16-1.2-25.8,0Z"/>
  <path class="cls-1" d="M2561.7,958.76c-21.3,2.7-41.5,12.9-55,27.7-21.3,23.2-33,61.6-29,94.7,3.9,32.3,20.6,53.2,48.7,60.8,11.1,2.9,32.5,2.9,43.8-.1,13.2-3.5,21.6-8.2,31-17.5,4.5-4.4,9.2-9.5,10.4-11.1l2.2-3-.5,7c-.3,3.8-.8,10.7-1.2,15.2l-.7,8.3h10.8l9.3-44.8c5.1-24.6,9.2-45,9.2-45.5,0-.4-17-.7-37.8-.7h-37.9l-1.3,5.7c-.7,3.2-1.5,6.4-1.7,7-.4,1,6.4,1.3,30.5,1.5l30.9.3-1.9,8c-1,4.4-4.1,12.7-6.9,18.5-4.5,9.3-6.2,11.6-14.3,19.5-14.7,14.6-27.7,19.8-49.1,19.9-9.8,0-13.4-.4-19.5-2.3-25-7.7-38-28-38-59.4,0-38.8,19.5-74.7,48.5-89.1,10.7-5.4,18.2-7,31.5-7,18.2.1,31,4.1,40.7,12.8,7.5,6.7,13.3,19.1,13.3,28.3v3.3h8.5c6.2,0,8.5-.3,8.5-1.3-.1-3.7-3-16.9-4.8-21.3-8.3-21.8-30.2-34.5-61.5-35.8-5.6-.3-13.1-.1-16.7.4Z"/>
  <path class="cls-1" d="M219.3,963.46c-.3,1-8.9,40.7-19.1,88.3s-18.8,87.1-19,87.8c-.3.9,11.5,1.2,57.3,1.2h57.7l1.6-7,1.6-7h-98.9l.5-2.3c.5-2,33-153.3,34.4-160l.6-2.7h-8.1c-6.8,0-8.1.3-8.6,1.7Z"/>
  <path class="cls-1" d="M562.3,963.46c-.3,1-6,28.3-12.7,60.8-10.5,51.1-12.2,60.3-12.2,69-.1,8,.3,11.4,2.2,16.8,5.4,15.9,18,26.3,38.6,31.8,11.5,3.1,33.3,3.1,46,0,25.8-6.3,42.7-22.5,50.4-48.6,1.1-3.9,7.7-34.2,14.6-67.5s12.8-61.3,13.1-62.3c.5-1.5-.3-1.7-7.9-1.7h-8.3l-6.3,30.2c-20.1,96.5-20.8,99.6-25,108.5-9.9,20.7-30.6,31.5-56.7,29.9-21.1-1.4-34.6-8.2-41.2-21.1-2.2-4.2-2.7-6.6-3-15.5-.4-10.3-.1-11.9,12.2-70.7,6.9-33,12.6-60.4,12.6-60.7s-3.6-.6-7.9-.6c-6.7,0-8.1.3-8.5,1.7Z"/>
  <path class="cls-1" d="M734.3,1048.96c-10.4,48-19.2,88.4-19.4,89.6l-.5,2.4,40.4-.5c43.9-.5,47.6-.9,62.7-6.7,12.1-4.7,21-10.6,30.7-20.5,14.1-14.2,23.1-31.6,27.4-53.1,6.9-34,1.2-65.3-14.9-81.4-6.6-6.6-14.8-11-26.5-14.1-7.3-2-11.1-2.2-44.5-2.6l-36.5-.5-18.9,87.4ZM826.2,977.76c12.1,3,22.7,10.4,28.1,19.5,5.9,10.2,6.8,14.5,6.8,34.5,0,15.5-.3,20-2.2,27.8-7.9,34.1-27.9,56.4-57.7,64.3-7,1.9-11.5,2.2-37.2,2.6-28.2.5-29.3.4-29.3-1.4,0-1.5,22.7-107.3,30.1-140.2l2.1-9.3,27.2.5c16.3.3,29.1,1,32.1,1.7Z"/>
  <path class="cls-1" d="M1403.7,961.96c-.1.2-8.8,40.3-19.3,89.3l-19.3,89,7.4.3c4.1.2,7.7.1,7.9-.2.3-.2,7.9-36.1,17-79.8,9.1-43.6,16.7-79.5,17-79.8s.8-.1,1,.5c.2.5,16.3,36.5,35.7,80l35.3,79,9.1.3c8,.2,9.1.1,9.6-1.5.5-2,38.6-176.2,38.6-176.9,0-.2-3.6-.4-8-.4s-8,.3-8,.6c0,1.7-32.2,156.2-32.9,157.9s-1.3,1-3.8-4.5c-1.6-3.6-17.7-39.7-35.8-80.3l-33-73.7h-9.2c-5.1,0-9.3.1-9.3.2Z"/>
  <path class="cls-1" d="M1761.3,963.46c-.3,1-6,28.3-12.7,60.8-10.5,51.1-12.2,60.3-12.2,69-.1,8,.3,11.4,2.2,16.8,5.4,15.9,18,26.3,38.6,31.8,11.5,3.1,33.3,3.1,46,0,25.8-6.3,42.7-22.5,50.4-48.6,1.1-3.9,7.7-34.2,14.6-67.5s12.8-61.3,13.1-62.3c.5-1.5-.3-1.7-7.9-1.7h-8.3l-6.3,30.2c-20.1,96.5-20.8,99.6-25,108.5-9.9,20.7-30.6,31.5-56.7,29.9-21.1-1.4-34.6-8.2-41.2-21.1-2.2-4.2-2.7-6.6-3-15.5-.4-10.3-.1-11.9,12.2-70.7,6.9-33,12.6-60.4,12.6-60.7s-3.6-.6-7.9-.6c-6.7,0-8.1.3-8.5,1.7Z"/>
  <path class="cls-1" d="M1952.3,963.46c-.3,1-8.9,40.7-19.1,88.3s-18.8,87.1-19,87.8c-.3.9,11.5,1.2,57.3,1.2h57.7l1.6-7,1.6-7h-98.9l.5-2.3c.5-2,33-153.3,34.4-160l.6-2.7h-8.1c-6.8,0-8.1.3-8.6,1.7Z"/>
  <path class="cls-1" d="M2078.8,967.46c-.6,3.1-1.1,6.2-1.1,7,0,1,5.8,1.3,30.6,1.3,28.6,0,30.5.1,30,1.7-.3,1-8.2,37.1-17.6,80.3s-17.4,79.5-17.7,80.8q-.5,2.3,7.8,2l8.4-.3,13.2-60.5c7.2-33.3,15.3-70.3,17.9-82.3l4.7-21.7h30.9c23.9,0,30.8-.3,30.8-1.3.1-.6.7-3.8,1.4-7l1.4-5.7h-139.5l-1.2,5.7Z"/>
  <path class="cls-1" d="M2249.2,964.96c-.4,1.8-8.8,42-18.8,89.3l-18.2,86,7.8.3c4.4.2,8.1.1,8.3,0,.2-.2,8.7-40,18.9-88.3,10.2-48.4,18.8-88.6,19-89.3.3-.9-1.7-1.2-8-1.2h-8.4l-.6,3.2Z"/>
  <path class="cls-1" d="M2317.7,961.96c-.1.2-8.8,40.3-19.3,89.3l-19.3,89,7.4.3c4.1.2,7.7.1,7.9-.2.3-.2,7.9-36.1,17-79.8,9.1-43.6,16.7-79.5,17-79.8s.8-.1,1,.5c.2.5,16.3,36.5,35.7,80l35.3,79,9.1.3c8,.2,9.1.1,9.6-1.5.5-2,38.6-176.2,38.6-176.9,0-.2-3.6-.4-8-.4s-8,.3-8,.6c0,1.7-32.2,156.2-32.9,157.9s-1.3,1-3.8-4.5c-1.6-3.6-17.7-39.7-35.8-80.3l-33-73.7h-9.2c-5.1,0-9.3.1-9.3.2Z"/>
</svg>